HIERARCHY
ROOT Hips
{
	OFFSET 0.00000 0.00000 0.00000
	CHANNELS 6 Xposition Yposition Zposition Zrotation Yrotation Xrotation 
	JOINT LHipJoint
	{
		OFFSET 0 0 0
		CHANNELS 3 Zrotation Yrotation Xrotation
		JOINT LeftHip
		{
			OFFSET 1.61024 -1.73873 0.75100
			CHANNELS 3 Zrotation Yrotation Xrotation
			JOINT LeftKnee
			{
				OFFSET 2.29819 -6.31424 0.00000
				CHANNELS 3 Zrotation Yrotation Xrotation
				JOINT LeftAnkle
				{
					OFFSET 2.76618 -7.60002 0.00000
					CHANNELS 3 Zrotation Yrotation Xrotation
					JOINT LeftToe
					{
						OFFSET 0.16838 -0.46263 2.02361
						CHANNELS 3 Zrotation Yrotation Xrotation
						End Site
						{
							OFFSET 0.00000 -0.00000 1.04662
						}
					}
				}
			}
		}
	}
	JOINT RHipJoint
	{
		OFFSET 0 0 0
		CHANNELS 3 Zrotation Yrotation Xrotation
		JOINT RightHip
		{
			OFFSET -1.46153 -1.73873 0.75100
			CHANNELS 3 Zrotation Yrotation Xrotation
			JOINT RightKnee
			{
				OFFSET -2.38373 -6.54924 0.00000
				CHANNELS 3 Zrotation Yrotation Xrotation
				JOINT RightAnkle
				{
					OFFSET -2.80314 -7.70157 0.00000
					CHANNELS 3 Zrotation Yrotation Xrotation
					JOINT RightToe
					{
						OFFSET -0.16142 -0.44349 2.02101
						CHANNELS 3 Zrotation Yrotation Xrotation
						End Site
						{
							OFFSET -0.00000 -0.00000 1.04381
						}
					}
				}
			}
		}
	}
	JOINT lowerback
	{
		OFFSET 0 0 0
		CHANNELS 3 Zrotation Yrotation Xrotation
		JOINT Chest
		{
			OFFSET -0.01629 1.66985 0.14750
			CHANNELS 3 Zrotation Yrotation Xrotation
			JOINT Chest2
			{
				OFFSET 0.02086 1.62378 0.20980
				CHANNELS 3 Zrotation Yrotation Xrotation
				JOINT lowerneck
				{
					OFFSET 0 0 0
					CHANNELS 3 Zrotation Yrotation Xrotation
					JOINT Neck
					{
						OFFSET -0.05690 1.78719 0.08702
						CHANNELS 3 Zrotation Yrotation Xrotation
						JOINT Head
						{
							OFFSET 0.16035 1.73871 -0.38470
							CHANNELS 3 Zrotation Yrotation Xrotation
							End Site
							{
								OFFSET 0.05645 1.80914 -0.14081
							}
						}
					}
				}
				JOINT LeftCollar
				{
					OFFSET 0 0 0
					CHANNELS 3 Zrotation Yrotation Xrotation
					JOINT LeftShoulder
					{
						OFFSET 2.83089 1.66494 -0.46008
CHANNELS 3 Zrotation Xrotation Yrotation
						JOINT LeftElbow
						{
OFFSET 0 -5.548930 -0.000000
CHANNELS 3 Zrotation Xrotation Yrotation
							JOINT LeftWrist
							{
OFFSET 0 -3.028980 -0.000000
CHANNELS 3 Zrotation Xrotation Yrotation
								JOINT lhand
								{
									OFFSET 0 0 0
CHANNELS 3 Zrotation Xrotation Yrotation
									JOINT LFingers
									{
OFFSET 0 -0.640950 -0.000000
CHANNELS 3 Zrotation Xrotation Yrotation
										End Site
										{
OFFSET 0 -0.516750 -0.000000
										}
									}
								}
								JOINT LThumb
								{
OFFSET 0 0.000000 0.000000
CHANNELS 3 Zrotation Xrotation Yrotation
									End Site
									{
OFFSET 0 -0.524640 0.524640
									}
								}
							}
						}
					}
				}
				JOINT RightCollar
				{
					OFFSET 0 0 0
					CHANNELS 3 Zrotation Yrotation Xrotation
					JOINT RightShoulder
					{
						OFFSET -2.84442 1.45761 -0.18088
CHANNELS 3 Zrotation Xrotation Yrotation
						JOINT RightElbow
						{
OFFSET 0 -5.351900 -0.000000
CHANNELS 3 Zrotation Xrotation Yrotation
							JOINT RightWrist
							{
OFFSET 0 -3.025310 -0.000000
CHANNELS 3 Zrotation Xrotation Yrotation
								JOINT rhand
								{
									OFFSET 0 0 0
CHANNELS 3 Zrotation Xrotation Yrotation
									JOINT RFingers
									{
OFFSET 0 -0.783890 -0.000000
CHANNELS 3 Zrotation Xrotation Yrotation
										End Site
										{
OFFSET 0 -0.631990 -0.000000
										}
									}
								}
								JOINT RThumb
								{
OFFSET 0 0.000000 0.000000
CHANNELS 3 Zrotation Xrotation Yrotation
									End Site
									{
OFFSET 0 -0.641640 0.641640
									}
								}
							}
						}
					}
				}
			}
		}
	}
}
MOTION
Frames: 16
Frame Time: .0083333
-0.5523 17.9205 -0.1592 7.9722 82.3344 25.6835 0.0000 0.0000 0.0000 -23.1209 6.5838 -14.6929 0.0000 -0.0000 -0.0000 0.0089 4.8017 -7.1517 0.5000 -4.5332 -12.5819 0.0000 0.0000 0.0000 7.3768 21.4799 -17.6310 -0.5683 -4.8281 13.4189 0.8084 -17.3582 -14.4833 -1.2648 7.1288 -20.0974 -0.9032 -3.7969 -1.0214 3.6222 -4.9074 -4.3742 4.3346 -2.3270 -3.5447 -8.7193 -3.0622 -6.4853 1.0787 -3.1092 14.3362 1.5577 -1.8494 5.5685 0.0000 -0.0000 0.0000 16.9728 -38.0822 -52.0489 146.8401 -43.4526 106.4681 1.9621 -18.5175 -22.7873 0.0 0.0 0.0 -7.1250 0.0 0.0 -26.8604 50.7301 4.0447 0.0000 -0.0000 0.0000 -27.5195 -44.4462 44.7056 -152.9997 -38.1795 -110.5007 -10.0953 -6.666 -10.8119 0.0 0.0 0.0 7.1250 0.0 -0.0 11.9538 19.125 7.5427
-0.5292 17.9190 -0.1518 7.6124 81.4677 25.2438 0.0000 0.0000 0.0000 -23.4272 7.4700 -14.7113 0.0000 0.0000 0.0000 0.0223 4.5856 -7.2979 0.4811 -4.4480 -12.3406 0.0000 0.0000 0.0000 7.2312 21.7159 -17.7412 -0.5851 -4.8976 13.6168 0.7468 -16.8338 -14.2820 -1.3232 7.2850 -20.5624 -0.7387 -4.0081 -1.0901 3.7537 -5.1795 -4.4766 4.3819 -2.4634 -3.5938 -8.8299 -3.1207 -6.5163 0.8522 -3.1362 14.4306 1.5014 -1.8855 5.6051 -0.0000 0.0000 0.0000 16.9238 -37.3946 -52.376 147.4250 -43.0008 106.8687 1.8119 -18.8886 -22.0365 0.0 0.0 0.0 -7.1250 0.0 0.0 -26.5799 50.0374 3.5204 -0.0000 0.0000 0.0000 -27.6885 -44.2923 44.6921 -153.4542 -37.7427 -110.7802 -10.1481 -8.6258 -10.9133 0.0 0.0 0.0 7.1250 0.0 -0.0 11.9120 19.0219 7.5431
-0.5055 17.9159 -0.1424 7.5324 80.5900 25.0808 0.0000 0.0000 0.0000 -23.7642 8.3475 -14.7449 0.0000 -0.0000 -0.0000 0.0362 4.3619 -7.4472 0.4877 -4.4779 -12.4251 0.0000 0.0000 0.0000 7.0626 21.9250 -17.8245 -0.5999 -4.9583 13.7897 0.6828 -16.2817 -14.1059 -1.3410 7.3319 -20.7024 -0.5111 -4.0679 -1.2963 3.7392 -5.2548 -4.5567 4.2289 -2.5076 -3.5765 -9.0202 -3.2826 -6.3039 0.8614 -3.3549 14.4090 1.5219 -2.0012 5.5778 0.0000 -0.0000 0.0000 16.6453 -36.9073 -53.3735 147.9616 -42.5778 107.2332 2.251 -18.8616 -21.4963 0.0 0.0 0.0 -7.1250 0.0 0.0 -25.8914 49.6201 3.1378 0.0000 -0.0000 0.0000 -28.0688 -43.9152 44.0769 -153.9514 -37.2566 -111.083 -9.518 -10.6041 -10.66 0.0 0.0 0.0 7.1250 0.0 -0.0 12.3647 19.3012 7.7646
-0.4831 17.9119 -0.1338 7.2612 79.7568 24.7310 0.0000 0.0000 0.0000 -24.0456 9.1938 -14.7936 0.0000 -0.0000 -0.0000 0.0503 4.1595 -7.6297 0.4594 -4.3478 -12.0572 0.0000 0.0000 0.0000 6.9066 22.2816 -17.8692 -0.6147 -5.0180 13.9600 0.6305 -15.8349 -14.0096 -1.3458 7.3446 -20.7405 -0.2872 -4.2548 -1.4069 3.8475 -5.4939 -4.6779 4.2164 -2.6296 -3.6334 -9.1264 -3.3207 -6.1259 0.6427 -3.3802 14.3581 1.4709 -2.0325 5.5329 0.0000 -0.0000 0.0000 16.3606 -36.2931 -53.9863 148.4491 -42.1862 107.5618 2.4832 -18.5498 -21.1171 0.0 0.0 0.0 -7.1250 0.0 0.0 -25.4831 49.3136 2.8798 0.0000 -0.0000 0.0000 -28.248 -43.7233 43.9767 -154.3503 -36.8607 -111.3233 -8.5409 -12.7342 -10.7463 0.0 0.0 0.0 7.1250 0.0 -0.0 13.0411 19.2568 8.225
-0.4618 17.9081 -0.1252 6.9064 78.9268 24.3242 0.0000 0.0000 0.0000 -24.2987 10.0404 -14.8680 0.0000 0.0000 0.0000 0.0661 3.8958 -7.7911 0.3887 -4.0033 -11.0860 0.0000 0.0000 0.0000 6.7900 22.5267 -17.9956 -0.6296 -5.0771 14.1285 0.5745 -15.3096 -13.8245 -1.3844 7.4450 -21.0405 -0.1630 -4.5520 -1.4250 4.0684 -5.8766 -4.8152 4.3858 -2.8174 -3.7292 -9.0890 -3.2366 -6.1503 0.2480 -3.2103 14.3728 1.3523 -1.9743 5.5283 0.0000 -0.0000 0.0000 16.2464 -35.5874 -54.1888 148.9135 -41.8066 107.8726 2.804 -17.7291 -20.7419 0.0 0.0 0.0 -7.1250 0.0 0.0 -25.0017 49.0218 2.6299 0.0000 -0.0000 0.0000 -28.3009 -43.7177 44.5508 -154.5707 -36.6396 -111.4552 -8.5901 -14.1549 -11.413 0.0 0.0 0.0 7.1250 0.0 -0.0 12.9687 18.5986 8.372
-0.4406 17.9066 -0.1162 6.5751 78.1048 23.9346 0.0000 0.0000 0.0000 -24.5511 10.8824 -14.9377 0.0000 -0.0000 -0.0000 0.0807 3.6404 -7.9304 0.3329 -3.7082 -10.2570 0.0000 0.0000 0.0000 6.7103 22.6419 -18.1450 -0.6429 -5.1297 14.2788 0.5164 -14.7042 -13.5315 -1.4676 7.6559 -21.6736 -0.0117 -4.7952 -1.4805 4.1718 -6.1960 -4.8710 4.4097 -2.9800 -3.7376 -8.6743 -3.1837 -6.3776 -0.2242 -3.0951 14.4967 1.1417 -1.9320 5.5861 -0.0000 -0.0000 0.0000 16.3198 -35.121 -54.4549 149.3182 -41.4707 108.1414 3.1548 -16.6715 -20.4107 0.0 0.0 0.0 -7.1250 0.0 0.0 -24.5197 48.7723 2.4149 -0.0000 -0.0000 0.0000 -28.359 -43.7896 45.0819 -154.6390 -36.5707 -111.4959 -9.6144 -14.5689 -12.2927 0.0 0.0 0.0 7.1250 0.0 -0.0 12.2188 17.6813 8.1178
-0.4184 17.9057 -0.1078 6.3782 77.2672 23.6898 0.0000 0.0000 0.0000 -24.8476 11.7207 -15.0224 0.0000 0.0000 0.0000 0.0961 3.4006 -8.1090 0.2853 -3.4349 -9.4920 0.0000 0.0000 0.0000 6.6137 22.6751 -18.3057 -0.6542 -5.1736 14.4043 0.4437 -13.9660 -13.2937 -1.5369 7.8264 -22.1881 0.1214 -5.0226 -1.5988 4.2772 -6.4953 -4.9269 4.4390 -3.1325 -3.7106 -8.4130 -3.1245 -6.5343 -0.5507 -2.9824 14.5946 1.0024 -1.8890 5.6296 -0.0000 -0.0000 0.0000 16.2416 -34.6592 -54.8698 149.6834 -41.1633 108.3825 3.5724 -15.3874 -20.1845 0.0 0.0 0.0 -7.1250 0.0 0.0 -24.0320 48.6263 2.2707 -0.0000 -0.0000 0.0000 -28.5946 -43.7694 45.7014 -154.8053 -36.4024 -111.5948 -10.7689 -14.435 -13.0773 0.0 0.0 0.0 7.1250 0.0 -0.0 11.3978 16.8383 7.7639
-0.3979 17.9039 -0.0979 6.1758 76.5009 23.4719 0.0000 0.0000 0.0000 -25.1007 12.4753 -15.1506 0.0000 0.0000 0.0000 0.1056 3.1965 -8.1692 0.2670 -3.3238 -9.1816 0.0000 0.0000 0.0000 6.5236 22.7873 -18.4409 -0.6619 -5.2035 14.4898 0.3939 -13.4104 -13.0697 -1.5970 7.9706 -22.6249 0.2402 -5.2636 -1.6979 4.4677 -6.8060 -5.0422 4.5699 -3.2862 -3.7444 -8.6360 -3.0774 -6.4690 -0.5239 -2.9080 14.4870 1.0532 -1.8611 5.5869 -0.0000 -0.0000 0.0000 16.0976 -34.2066 -55.1247 150.0329 -40.8652 108.6119 3.9095 -14.278 -19.7825 0.0 0.0 0.0 -7.1250 0.0 0.0 -23.5356 48.3067 2.0245 -0.0000 -0.0000 0.0000 -28.9901 -43.6699 46.4566 -154.9978 -36.2063 -111.7088 -11.6878 -13.8816 -13.8539 0.0 0.0 0.0 7.1250 0.0 -0.0 10.7511 16.0049 7.5049
-0.3806 17.9028 -0.0858 5.7024 75.7555 22.9960 0.0000 0.0000 0.0000 -25.2659 13.2371 -15.2977 0.0000 0.0000 0.0000 0.1134 3.0112 -8.2051 0.2512 -3.2246 -8.9048 0.0000 0.0000 0.0000 6.5148 22.9867 -18.5674 -0.6690 -5.2304 14.5669 0.3614 -12.9673 -12.7718 -1.6802 8.1655 -23.2178 0.4167 -5.4595 -1.7653 4.6300 -7.0552 -5.1654 4.6438 -3.4108 -3.8188 -8.7063 -3.0707 -6.4081 -0.5375 -2.8997 14.4204 1.0617 -1.8609 5.5567 -0.0000 -0.0000 0.0000 16.0206 -33.8911 -55.3493 150.3247 -40.6135 108.8023 4.2335 -13.5885 -19.5423 0.0 0.0 0.0 -7.1250 0.0 0.0 -23.1312 48.1317 1.8815 -0.0000 -0.0000 0.0000 -29.3159 -43.5265 47.1983 -155.1380 -36.0626 -111.7915 -12.4159 -12.8907 -14.4941 0.0 0.0 0.0 7.1250 0.0 -0.0 10.2470 15.3123 7.2966
-0.3613 17.9041 -0.0731 5.1453 74.9647 22.3992 0.0000 0.0000 0.0000 -25.3972 14.0850 -15.3994 0.0000 0.0000 0.0000 0.1325 2.6874 -8.4136 0.1597 -2.5750 -7.0978 0.0000 0.0000 0.0000 6.5348 23.2657 -18.6307 -0.6756 -5.2559 14.6399 0.3130 -12.4217 -12.6247 -1.7060 8.2249 -23.3992 0.6460 -5.6099 -1.8421 4.7279 -7.2450 -5.2927 4.6221 -3.5087 -3.9112 -8.5459 -3.0650 -6.2533 -0.7097 -2.9028 14.4243 0.9839 -1.8656 5.5264 -0.0000 -0.0000 0.0000 15.8779 -33.5266 -55.8233 150.5185 -40.4448 108.9283 4.7255 -13.0466 -19.7127 0.0 0.0 0.0 -7.1250 0.0 0.0 -22.7655 48.3572 1.9809 -0.0000 -0.0000 0.0000 -29.4818 -43.3878 47.8582 -155.2252 -35.973 -111.8427 -12.7847 -11.7717 -15.0395 0.0 0.0 0.0 7.1250 0.0 -0.0 9.9932 14.7365 7.2353
-0.3418 17.9023 -0.0604 4.8729 74.1324 22.1006 0.0000 0.0000 0.0000 -25.6329 14.9251 -15.5401 0.0000 -0.0000 -0.0000 0.1471 2.4655 -8.5913 0.1158 -2.1940 -6.0421 0.0000 0.0000 0.0000 6.4564 23.6099 -18.7036 -0.6835 -5.2860 14.7260 0.2691 -11.9186 -12.5163 -1.7451 8.3137 -23.6711 0.8686 -5.6783 -2.0126 4.7341 -7.3332 -5.3856 4.4958 -3.5591 -3.9337 -8.3639 -3.1191 -6.1259 -0.8291 -2.9947 14.4307 0.9126 -1.9092 5.5049 -0.0000 0.0000 0.0000 15.9014 -33.3674 -56.425 150.7955 -40.2017 109.1075 5.3183 -12.9592 -19.8004 0.0 0.0 0.0 -7.1250 0.0 0.0 -22.2684 48.5218 2.0276 -0.0000 0.0000 0.0000 -29.7573 -43.0649 48.4246 -155.3144 -35.8809 -111.8951 -13.4173 -10.6825 -15.5081 0.0 0.0 0.0 7.1250 0.0 -0.0 9.5668 14.2139 7.0253
-0.3213 17.8979 -0.0491 4.4347 73.3681 21.6280 0.0000 0.0000 0.0000 -25.8027 15.7233 -15.6612 0.0000 0.0000 0.0000 0.1541 2.3414 -8.6630 0.1159 -2.1951 -6.0452 0.0000 0.0000 0.0000 6.4872 23.7819 -18.8004 -0.6928 -5.3208 14.8259 0.2252 -11.3647 -12.3441 -1.7863 8.4061 -23.9545 1.1793 -5.7926 -2.1485 4.7926 -7.4814 -5.4402 4.3769 -3.6426 -3.9372 -8.2329 -3.1196 -6.2772 -0.9116 -2.9846 14.5236 0.8636 -1.9071 5.5556 0.0000 -0.0000 0.0000 16.041 -33.2186 -56.9535 151.1283 -39.9064 109.3217 6.0275 -13.1499 -19.2095 0.0 0.0 0.0 -7.1250 0.0 0.0 -21.3578 48.0728 1.6915 0.0000 -0.0000 0.0000 -29.9969 -42.844 49.2753 -155.3988 -35.7936 -111.9445 -14.3463 -9.7561 -15.5368 0.0 0.0 0.0 7.1250 0.0 -0.0 8.9431 14.1058 6.576
-0.3043 17.8952 -0.0389 4.2329 72.6270 21.3759 0.0000 0.0000 0.0000 -26.0294 16.4694 -15.7841 0.0000 -0.0000 -0.0000 0.1602 2.2724 -8.7525 0.1207 -2.2397 -6.1685 0.0000 0.0000 0.0000 6.4486 24.0017 -18.9032 -0.7065 -5.3720 14.9728 0.1948 -10.9373 -12.1722 -1.8766 8.6042 -24.5648 1.3577 -5.9730 -2.1531 4.8990 -7.7109 -5.5590 4.4005 -3.7591 -4.0547 -8.0912 -3.0772 -6.3545 -1.0761 -2.9130 14.5915 0.7928 -1.8787 5.5827 -0.0000 0.0000 0.0000 15.9633 -32.8377 -57.4178 151.3377 -39.7189 109.4557 6.3665 -13.3964 -18.6744 0.0 0.0 0.0 -7.1250 0.0 0.0 -20.8187 47.6198 1.4036 -0.0000 0.0000 0.0000 -30.1244 -42.7338 50.3007 -155.5119 -35.6762 -112.0106 -14.9331 -9.3375 -15.2818 0.0 0.0 0.0 7.1250 0.0 -0.0 8.5461 14.3133 6.2391
-0.2899 17.8935 -0.0273 3.9929 71.8799 21.0854 0.0000 0.0000 0.0000 -26.2275 17.2311 -15.9140 0.0000 0.0000 0.0000 0.1677 2.1399 -8.8311 0.1076 -2.1147 -5.8228 0.0000 0.0000 0.0000 6.4275 24.2848 -18.9704 -0.7167 -5.4099 15.0815 0.1694 -10.5769 -12.0421 -1.9335 8.7262 -24.9425 1.4204 -6.1386 -2.0390 5.0617 -7.9108 -5.7455 4.5658 -3.8527 -4.2891 -7.9555 -3.0378 -6.3110 -1.2879 -2.8481 14.6502 0.7094 -1.8560 5.5864 -0.0000 -0.0000 0.0000 15.648 -32.3142 -57.9268 151.4516 -39.6162 109.5285 6.4403 -13.6546 -18.5273 0.0 0.0 0.0 -7.1250 0.0 0.0 -20.6896 47.492 1.3264 -0.0000 -0.0000 0.0000 -30.279 -42.5503 51.1993 -155.6110 -35.5729 -112.0683 -15.3694 -9.4679 -15.353 0.0 0.0 0.0 7.1250 0.0 -0.0 8.2530 14.202 6.0401
-0.2755 17.8894 -0.0162 3.8994 71.1441 20.9544 0.0000 0.0000 0.0000 -26.4667 17.9586 -16.0572 0.0000 0.0000 0.0000 0.1746 1.9737 -8.8756 0.0863 -1.8944 -5.2139 0.0000 0.0000 0.0000 6.3745 24.4343 -19.0848 -0.7241 -5.4372 15.1598 0.1381 -10.0918 -11.8358 -1.9409 8.7418 -24.9910 1.4610 -6.2937 -1.8947 5.2076 -8.0946 -5.9576 4.7337 -3.9365 -4.5677 -7.7754 -2.9827 -6.4447 -1.5269 -2.7404 14.8694 0.6098 -1.8169 5.6686 -0.0000 -0.0000 0.0000 15.3097 -31.7247 -58.4137 151.5836 -39.4967 109.6126 6.4901 -13.9064 -18.2444 0.0 0.0 0.0 -7.1250 0.0 0.0 -20.5261 47.2336 1.1791 -0.0000 -0.0000 0.0000 -30.3564 -42.3546 52.0065 -155.7159 -35.4632 -112.1292 -15.73 -9.7612 -15.3451 0.0 0.0 0.0 7.1250 0.0 -0.0 8.0100 14.1773 5.8629
-0.2591 17.8872 -0.0050 3.7098 70.4431 20.7491 0.0000 0.0000 0.0000 -26.6862 18.6532 -16.2127 0.0000 -0.0000 -0.0000 0.1831 1.8781 -8.9992 0.0893 -1.9278 -5.3061 0.0000 0.0000 0.0000 6.3630 24.5333 -19.1843 -0.7274 -5.4494 15.1950 0.1012 -9.5509 -11.6911 -1.9447 8.7499 -25.0162 1.6070 -6.4560 -1.9861 5.3293 -8.3021 -6.0584 4.7805 -4.0418 -4.6126 -7.6262 -2.9273 -6.5701 -1.7088 -2.6433 14.9714 0.5331 -1.7784 5.7144 -0.0000 -0.0000 0.0000 15.1195 -31.3848 -58.6014 151.7035 -39.3878 109.6887 6.4755 -14.0335 -17.9393 0.0 0.0 0.0 -7.1250 0.0 0.0 -20.4136 46.9455 1.0213 -0.0000 -0.0000 0.0000 -30.3231 -42.2536 52.6407 -155.8213 -35.3527 -112.1903 -15.9725 -9.9413 -15.2664 0.0 0.0 0.0 7.1250 0.0 -0.0 7.8453 14.2354 5.7302
